<svg width="20" height="20" viewBox="0 0 20 20" fill="none" xmlns="http://www.w3.org/2000/svg">
<path d="M14.1667 6.66663C13.7073 6.66663 13.3334 6.29268 13.3334 5.83331C13.3334 4.91413 12.5859 4.16663 11.6667 4.16663H10.4167C10.1864 4.16663 10 4.35299 10 4.58331C10 4.81362 10.1864 4.99999 10.4167 4.99999H11.6667C12.1261 4.99999 12.5 5.37393 12.5 5.83331C12.5 6.75249 13.2475 7.49995 14.1667 7.49995C14.6261 7.49995 15 7.87389 15 8.33327V9.58327C15 9.81358 15.1864 9.99995 15.4167 9.99995C15.647 9.99995 15.8334 9.81358 15.8334 9.58327V8.33327C15.8333 7.41409 15.0859 6.66663 14.1667 6.66663Z" fill="#9097A1"/>
<path d="M13.75 9.16673H12.9167C12.6868 9.16673 12.5 8.97998 12.5 8.75005C12.5 8.06076 11.9393 7.50005 11.25 7.50005C11.0201 7.50005 10.8333 7.3133 10.8333 7.08337V6.25005C10.8333 6.01974 10.647 5.83337 10.4166 5.83337C10.1863 5.83337 9.99996 6.01974 9.99996 6.25005V7.08337C9.99996 7.77267 10.5607 8.33337 11.25 8.33337C11.4798 8.33337 11.6666 8.52013 11.6666 8.75005C11.6666 9.43935 12.2273 10.0001 12.9166 10.0001H13.75C13.9803 10.0001 14.1667 9.81369 14.1667 9.58337C14.1667 9.3531 13.9803 9.16673 13.75 9.16673Z" fill="#9097A1"/>
<path d="M10 0C4.48609 0 0 4.48609 0 10C0 15.5139 4.48609 20 10 20C15.5139 20 20 15.5139 20 10C20 4.48609 15.5139 0 10 0ZM10 18.3333C5.40488 18.3333 1.66668 14.5951 1.66668 10C1.66668 8.00191 2.37469 6.16695 3.55141 4.72977L9.65496 10.8333H4.58332C4.35301 10.8333 4.16664 11.0197 4.16664 11.25V12.9167C4.16664 13.147 4.35301 13.3334 4.58332 13.3334H12.1549L15.2702 16.4486C13.833 17.6253 11.9981 18.3333 10 18.3333ZM16.4486 15.2702L14.5117 13.3333H15.4167C15.647 13.3333 15.8334 13.147 15.8334 12.9166V11.25C15.8334 11.0197 15.647 10.8333 15.4167 10.8333H12.0117L4.72977 3.55137C6.16695 2.37469 8.00191 1.66668 10 1.66668C14.5951 1.66668 18.3333 5.40488 18.3333 10C18.3333 11.9981 17.6253 13.833 16.4486 15.2702ZM14.1667 12.5V11.6667H15V12.5H14.1667Z" fill="#9097A1"/>
</svg>
