<svg width="20" height="16" viewBox="0 0 20 16" fill="none" xmlns="http://www.w3.org/2000/svg">
<path d="M3.25158 6.9467C2.83466 7.36362 2.83466 8.04214 3.25158 8.46315C3.6685 8.88007 4.34702 8.88007 4.76803 8.46315C7.65379 5.57739 12.3503 5.57739 15.236 8.46315C15.4445 8.67161 15.7184 8.77788 15.9922 8.77788C16.2661 8.77788 16.54 8.67161 16.7484 8.46315C17.1653 8.04623 17.1653 7.36771 16.7484 6.9467C13.0288 3.22301 6.97118 3.22301 3.25158 6.9467Z" fill="#9097A1"/>
<path d="M6.14552 9.84055C5.72859 10.2575 5.72859 10.936 6.14552 11.357C6.56244 11.7739 7.24096 11.7739 7.66197 11.357C8.94952 10.0654 11.0505 10.0654 12.338 11.357C12.5465 11.5655 12.8204 11.6717 13.0942 11.6717C13.3681 11.6717 13.6419 11.5655 13.8504 11.357C14.2673 10.9401 14.2673 10.2616 13.8504 9.84464C11.729 7.71507 8.271 7.71507 6.14552 9.84055Z" fill="#9097A1"/>
<path d="M10 15.1175C10.7878 15.1175 11.4265 14.4788 11.4265 13.6909C11.4265 12.9031 10.7878 12.2644 10 12.2644C9.21215 12.2644 8.57347 12.9031 8.57347 13.6909C8.57347 14.4788 9.21215 15.1175 10 15.1175Z" fill="#9097A1"/>
<path d="M19.6873 4.00368C14.345 -1.33456 5.65502 -1.33456 0.312692 4.00368C-0.104231 4.4206 -0.104231 5.09912 0.312692 5.52013C0.729614 5.93705 1.40813 5.93705 1.82914 5.52013C6.33354 1.01165 13.6665 1.01165 18.1749 5.52013C18.3834 5.72859 18.6573 5.83487 18.9311 5.83487C19.205 5.83487 19.4788 5.72859 19.6873 5.52013C20.1042 5.10321 20.1042 4.42469 19.6873 4.00368Z" fill="#9097A1"/>
</svg>
