<svg width="24" height="22" viewBox="0 0 24 22" fill="none" xmlns="http://www.w3.org/2000/svg">
<path d="M6.32646 1.85876C5.4506 2.32953 4.63366 2.90966 3.89824 3.58301L4.84793 4.62012C5.49743 4.02537 6.21888 3.51308 6.99223 3.09744L6.32646 1.85876Z" fill="#9097A1"/>
<path d="M11.0696 0.470947C10.074 0.547354 9.09178 0.747697 8.15024 1.06645L8.60113 2.39845C9.43171 2.11729 10.2984 1.94053 11.1772 1.87307L11.0696 0.470947Z" fill="#9097A1"/>
<path d="M0.366844 9.47986C0.123422 10.4409 0 11.4352 0 12.4354H1.40625C1.40625 11.5516 1.51519 10.6734 1.73006 9.82514L0.366844 9.47986Z" fill="#9097A1"/>
<path d="M17.7865 1.92029L17.1075 3.15174C17.8766 3.57587 18.5928 4.09609 19.236 4.69787L20.1967 3.67102C19.4685 2.98965 18.6576 2.40062 17.7865 1.92029Z" fill="#9097A1"/>
<path d="M2.54749 5.04211C1.93221 5.82774 1.41667 6.68757 1.01528 7.59769L2.30196 8.16511C2.65624 7.36186 3.1113 6.60286 3.65458 5.90921L2.54749 5.04211Z" fill="#9097A1"/>
<path d="M21.5319 5.14441L20.4155 5.99955C20.9511 6.69864 21.3977 7.4621 21.7432 8.26867L23.0358 7.71499C22.6444 6.80111 22.1384 5.93622 21.5319 5.14441Z" fill="#9097A1"/>
<path d="M23.6636 9.60303L22.2968 9.93382C22.4938 10.7479 22.5937 11.5895 22.5937 12.4354H24C24 11.4782 23.8868 10.5252 23.6636 9.60303Z" fill="#9097A1"/>
<path d="M13.0567 0.481323L12.9344 1.88228C13.8122 1.95892 14.677 2.14482 15.5046 2.43489L15.9697 1.10776C15.0313 0.778933 14.0513 0.568136 13.0567 0.481323Z" fill="#9097A1"/>
<path d="M10.125 2.40417V8.02917H13.875V2.40417H10.125ZM12.4688 6.62292H11.5312V3.81042H12.4688V6.62292Z" fill="#9097A1"/>
<path d="M8.03355 11.5991L7.6623 12.9379H8.38788L8.03355 11.5991Z" fill="#9097A1"/>
<path d="M18.8396 6.44225C17.8633 5.32883 16.6392 4.47889 15.2812 3.953V9.43541H8.71875V3.95324C7.32192 4.49474 6.06647 5.37927 5.08003 6.53511C3.67828 8.17771 2.90625 10.2731 2.90625 12.4354C2.90625 17.4497 6.98569 21.5292 12 21.5292C17.0143 21.5292 21.0938 17.4497 21.0938 12.4354C21.0938 10.2283 20.2932 8.09994 18.8396 6.44225ZM8.80406 14.451L8.56219 13.6692H7.49906L7.26281 14.451H6.09844L7.58906 10.4573H8.47781L9.96286 14.451H8.80406ZM11.3522 14.451H10.1766L13.0734 10.4573H14.2547L11.3522 14.451ZM17.6268 13.9504C17.5124 14.0667 17.3821 14.1642 17.2359 14.2429C17.0896 14.3217 16.934 14.3817 16.769 14.4229C16.604 14.4641 16.4428 14.4848 16.2853 14.4848C16.0077 14.4848 15.7528 14.4257 15.5203 14.3076C15.2877 14.1895 15.088 14.033 14.9213 13.8379C14.7543 13.643 14.624 13.4217 14.5303 13.1742C14.4365 12.9267 14.3896 12.6755 14.3896 12.4204C14.3896 12.1767 14.4327 11.9367 14.5191 11.7004C14.6053 11.4642 14.7318 11.2523 14.8988 11.0648C15.0656 10.8773 15.2681 10.7255 15.5062 10.6092C15.7443 10.493 16.0153 10.4348 16.3191 10.4348C16.6753 10.4348 16.9865 10.5145 17.2528 10.6738C17.5191 10.8333 17.7159 11.0442 17.8435 11.3067L17.0054 11.9029C16.9716 11.8054 16.9275 11.7248 16.8732 11.661C16.8188 11.5973 16.7597 11.5467 16.696 11.5092C16.6322 11.4717 16.5647 11.4455 16.4935 11.4304C16.4222 11.4155 16.3566 11.4079 16.2967 11.4079C16.1579 11.4079 16.0387 11.4388 15.9395 11.5007C15.84 11.5626 15.7575 11.6433 15.692 11.7426C15.6263 11.842 15.5785 11.9545 15.5485 12.0801C15.5184 12.2058 15.5035 12.3304 15.5035 12.4542C15.5035 12.593 15.5212 12.7261 15.557 12.8535C15.5926 12.9811 15.645 13.0936 15.7145 13.191C15.7838 13.2886 15.8682 13.3664 15.9675 13.4245C16.0669 13.4826 16.1804 13.5117 16.3079 13.5117C16.3716 13.5117 16.4373 13.5032 16.5047 13.4863C16.5722 13.4695 16.6369 13.4413 16.6988 13.402C16.7607 13.3626 16.817 13.312 16.8676 13.2501C16.9182 13.1882 16.9584 13.1123 16.9885 13.0223L17.8829 13.5567C17.8265 13.7029 17.7412 13.8342 17.6268 13.9504Z" fill="#9097A1"/>
</svg>
