<svg width="19" height="20" viewBox="0 0 19 20" fill="none" xmlns="http://www.w3.org/2000/svg">
<path d="M5.83253 3.23652V13.8827C5.21304 13.3301 4.39671 12.9936 3.50316 12.9936C1.57152 12.9936 0 14.5651 0 16.4968C0 18.4285 1.57152 20 3.50316 20C5.43241 20 7.00229 18.4324 7.00628 16.5041H7.00635V7.94823L17.4265 5.30679V11.0566C16.807 10.504 15.9907 10.1675 15.0972 10.1675C13.1655 10.1675 11.594 11.739 11.594 13.6707C11.594 15.6024 13.1655 17.1739 15.0972 17.1739C17.0288 17.1739 18.6004 15.6023 18.6004 13.6707V0L5.83253 3.23652Z" fill="#9097A1"/>
</svg>
