<svg width="20" height="20" viewBox="0 0 20 20" fill="none" xmlns="http://www.w3.org/2000/svg">
<path d="M10.0006 1.56616C5.34244 1.56616 1.56682 5.34179 1.56682 10C1.56682 13.3563 3.53246 16.2457 6.3706 17.6032L6.63457 12.5024C6.63457 12.5024 6.13804 12.3395 6.02935 12.2864C4.97619 11.8225 4.21112 10.4566 4.21112 8.68376C4.21112 6.74927 5.71137 5.08302 7.16183 5.06925C7.16367 5.06925 7.16367 5.06925 7.16488 5.06925C7.16551 5.06925 7.16672 5.06925 7.1673 5.06925C8.61807 5.08296 10.1184 6.74922 10.1184 8.68376C10.1184 10.4566 9.35236 11.8219 8.30136 12.2864C8.29311 12.29 7.6913 12.5086 7.6913 12.5086L7.98611 18.18C8.63304 18.3392 9.30566 18.4326 10.0018 18.4326C10.9405 18.4326 11.8395 18.2727 12.683 17.9901L12.9443 12.9358C12.2559 12.7844 11.6687 12.3461 11.3006 11.7963C10.8447 11.1133 11.6516 5.06867 11.6516 5.06867H12.1765V10.741H12.6978V5.0693H13.2678V10.7422H13.7866V5.0693H14.3781V10.7422H14.8987V5.0693H15.3015C15.3015 5.0693 16.1084 11.1139 15.6519 11.7969C15.2875 12.3413 14.7058 12.7784 14.0259 12.9334C14.0137 12.9377 14.0027 12.9419 14.0027 12.9419L14.2297 17.2895C16.742 15.8289 18.4351 13.1153 18.4351 10.0001C18.4338 5.34184 14.6582 1.56616 10.0006 1.56616Z" fill="#9097A1"/>
<path d="M5.44557 7.82619C5.47577 7.70321 5.51638 7.58633 5.51822 7.58423C5.53135 7.53816 5.50692 7.49114 5.45686 7.46125C5.40927 7.43561 5.35127 7.44875 5.32443 7.48993C5.32443 7.48993 5.26675 7.58181 5.18312 7.71761C5.11509 7.83449 5.01438 8.02124 4.94567 8.2538C4.88615 8.45762 4.81508 8.72863 4.78303 9.03195C4.76932 9.19128 4.76622 9.33501 4.77111 9.48299C4.78303 9.65173 4.80862 9.79608 4.85747 9.96119C5.02316 10.4321 5.15076 10.8881 5.61125 11.3378C5.75682 11.4874 5.90637 11.5893 6.01438 11.6644L6.05252 11.6912C6.07574 11.7065 6.09801 11.7206 6.11997 11.7334C6.21064 11.781 6.27131 11.7981 6.28235 11.8005C6.32747 11.8127 6.37391 11.7907 6.39308 11.7541C6.4111 11.7157 6.39797 11.6674 6.36046 11.637C6.36046 11.637 6.30793 11.5912 6.24053 11.5057C6.19446 11.4538 6.1444 11.3788 6.08614 11.294C6.04495 11.2341 5.99641 11.1664 5.95124 11.1005C5.72693 10.758 5.59759 10.2802 5.41872 9.79062C5.38363 9.6844 5.35495 9.54677 5.34423 9.42988C5.32994 9.29498 5.32322 9.16502 5.32322 9.04446C5.31802 8.7643 5.33052 8.52381 5.35495 8.32881C5.383 8.10881 5.40496 7.9437 5.44557 7.82619Z" fill="#9097A1"/>
<path d="M10.0006 0C4.48701 0 0 4.48607 0 9.99997C0 15.5127 4.48701 20 10.0006 20C15.5139 20 20.0001 15.5127 20.0001 9.99997C20 4.48607 15.5139 0 10.0006 0ZM10.0006 19.2542C4.89744 19.2542 0.745533 15.1026 0.745533 9.99997C0.745533 4.89681 4.89744 0.744902 10.0006 0.744902C15.1032 0.744902 19.2554 4.89681 19.2554 9.99997C19.2554 15.1026 15.1031 19.2542 10.0006 19.2542Z" fill="#9097A1"/>
</svg>
