<svg width="78" height="101" viewBox="0 0 78 101" fill="none" xmlns="http://www.w3.org/2000/svg">
<path d="M66.3204 68.7852V61.8778C66.3204 60.2618 65.0104 58.9518 63.3944 58.9518C61.7784 58.9518 60.4684 60.2618 60.4684 61.8778V67.389L66.3204 68.7852Z" fill="white"/>
<path d="M11.6487 68.7852V61.8778C11.6487 60.2618 12.9587 58.9518 14.5747 58.9518C16.1907 58.9518 17.5007 60.2618 17.5007 61.8778V67.389L11.6487 68.7852Z" fill="white"/>
<path d="M5.09867 88.3692C4.95295 89.6493 4.87805 90.9508 4.87805 92.2699V99.8251H73.0977V92.2699C73.0977 90.9509 73.0228 89.6493 72.8771 88.3692L46.0756 88.3692C46.0756 88.3692 43.7794 84.1812 39.0858 84.1812C34.042 84.1812 31.9404 88.3692 31.9404 88.3692L5.09867 88.3692Z" fill="#5A42E6"/>
<path d="M56.8497 74.5891C52.2946 69.9877 45.9742 67.1372 38.9879 67.1372C32.0017 67.1372 25.6812 69.9877 21.1261 74.5892L14.5746 68.4483C20.7691 62.101 29.4183 58.1602 38.9879 58.1602C48.5577 58.1602 57.207 62.1011 63.4015 68.4485L56.8497 74.5891Z" fill="#5A42E6"/>
<path d="M55.7192 30.1175H22.2539C22.2539 30.1175 15.492 27.33 16.4588 19.9398C17.1355 14.8 21.0454 12.9954 24.762 9.75683C26.6203 8.14023 27.8448 0.803772 38.9892 0.803772C43.5758 0.803772 46.5244 2.22159 48.5384 3.94024C51.1111 6.14231 52.1691 8.8492 53.211 9.75683C56.9277 12.9954 61.0793 14.9503 61.5143 19.9398C62.1588 27.3623 55.7192 30.1175 55.7192 30.1175Z" fill="white"/>
<path d="M24.9742 29.9227V23.8389C24.9742 22.8842 25.2053 21.9367 25.692 21.1153C26.9632 18.9699 30.3488 16.1365 38.9878 16.1365C47.3757 16.1365 50.8111 18.7727 52.1673 20.925C52.7185 21.7997 53.0013 22.8137 53.0013 23.8475V28.9964L24.9742 29.9227Z" fill="white"/>
<path d="M52.2815 27.2011L49.435 30.6385C48.1246 32.2175 46.1804 33.1305 44.1287 33.1305H33.849C31.7974 33.1305 29.8478 32.2175 28.5427 30.6385L25.6908 27.2011C26.9637 25.0528 30.3472 22.2225 38.9889 22.2225C47.3781 22.2225 50.81 24.8542 52.1688 27.0079C52.2064 27.0723 52.2494 27.1368 52.2815 27.2011Z" fill="white"/>
<path d="M7.29786 89.4378L2.9615 87.3306C1.05871 86.406 0.26573 84.1139 1.19037 82.2111L7.48298 69.2615C8.40762 67.3587 10.6997 66.5657 12.6025 67.4904L16.9388 69.5975C20.9085 71.5265 22.5627 76.3082 20.6338 80.2779L17.9782 85.7428C16.0492 89.7125 11.2675 91.3667 7.29786 89.4378Z" fill="white"/>
<path d="M70.6782 89.4378L75.0145 87.3306C76.9173 86.406 77.7103 84.1139 76.7856 82.2111L70.493 69.2615C69.5684 67.3587 67.2763 66.5657 65.3735 67.4904L61.0372 69.5975C57.0676 71.5265 55.4133 76.3082 57.3422 80.2779L59.9978 85.7428C61.9268 89.7125 66.7085 91.3667 70.6782 89.4378Z" fill="white"/>
<path d="M20.6317 80.2753L17.9785 85.7427C16.0504 89.7117 11.2651 91.3659 7.29599 89.4378L2.96188 87.3325C2.40331 87.0639 1.93598 86.6719 1.58691 86.2046C4.53547 86.1885 7.35512 84.5342 8.72996 81.7039L11.3886 76.2364C12.8871 73.1482 12.221 69.5713 9.98137 67.2242C10.83 67.0094 11.7537 67.0792 12.6024 67.4927L16.9366 69.5981C20.911 71.5262 22.5652 76.3062 20.6317 80.2753Z" fill="#E8E1F2"/>
<path d="M75.0163 87.3324L70.6767 89.4378C66.7667 91.339 62.0619 89.7601 60.0855 85.9092C60.5421 85.7857 60.9931 85.6138 61.4336 85.399L65.7678 83.2882C67.6691 82.3645 68.464 80.0711 67.5401 78.1699L62.9267 68.6797L65.3758 67.4927C67.277 66.5636 69.5704 67.3585 70.494 69.2597L76.7833 82.2087C77.7125 84.1154 76.9176 86.4086 75.0163 87.3324Z" fill="#E8E1F2"/>
<path d="M33.5519 52.749H44.2669V58.3183H33.5519V52.749Z" fill="white"/>
<path d="M55.719 30.1175H23.9776C22.5383 28.4901 21.3137 26.0465 21.7648 22.6037C22.4416 17.4639 26.3514 15.6593 30.0681 12.4207C31.6471 11.0458 32.7696 5.52467 39.9396 3.91345C41.191 3.62884 42.6303 3.46771 44.29 3.46771C45.9012 3.46771 47.2975 3.63956 48.5328 3.94027C48.8121 4.17662 49.0753 4.42373 49.3223 4.67612C49.4351 4.78889 49.5372 4.89628 49.6392 5.00911C51.0411 6.51826 51.895 8.08656 52.6147 9.06939C52.6791 9.16072 52.7436 9.2413 52.808 9.32181C52.8241 9.34869 52.8402 9.3702 52.8617 9.3917C52.9206 9.46402 52.9796 9.52965 53.0378 9.58991C53.095 9.65035 53.1523 9.70629 53.2108 9.75689C56.9274 12.9955 61.079 14.9504 61.5141 19.9399C62.1586 27.3623 55.719 30.1175 55.719 30.1175Z" fill="#5A42E6"/>
<path d="M55.719 30.1175H47.1632C47.1632 30.1175 53.6028 27.3623 52.9583 19.9398C52.5233 14.9504 48.3717 12.9955 44.6551 9.75686C43.6078 8.84385 42.5444 6.11546 39.9396 3.91345C41.191 3.62884 42.6303 3.46771 44.29 3.46771C45.9012 3.46771 47.2975 3.63956 48.5328 3.94027C48.8121 4.17662 49.0753 4.42372 49.3223 4.67611C49.4351 4.78888 49.5372 4.89628 49.6393 5.00911C51.0411 6.51825 51.895 8.08656 52.6147 9.06939C52.6791 9.16072 52.7436 9.2413 52.808 9.32181C52.8241 9.34869 52.8402 9.37019 52.8617 9.3917C52.9799 9.53135 53.0927 9.65487 53.2108 9.75689C56.9275 12.9955 61.079 14.9504 61.5141 19.9399C62.1586 27.3623 55.719 30.1175 55.719 30.1175Z" fill="#5A42E6"/>
<path d="M24.9742 29.9227V23.8389C24.9742 22.8842 25.2053 21.9367 25.692 21.1153C26.9632 18.9699 30.3488 16.1365 38.9878 16.1365C47.3757 16.1365 50.8111 18.7727 52.1673 20.925C52.7185 21.7997 53.0013 22.8137 53.0013 23.8475V28.9964L24.9742 29.9227Z" fill="#FFC107"/>
<path d="M53.0017 29.9295V40.8322C53.0017 47.8464 47.314 53.5341 40.2998 53.5341H37.6788C30.6592 53.5341 24.9769 47.8464 24.9769 40.8322V29.9242C24.9769 28.9681 25.2079 28.0229 25.6912 27.2011C26.9642 25.0528 30.3476 22.2225 38.9893 22.2225C47.3785 22.2225 50.8104 24.8542 52.1692 27.0079C52.2068 27.0722 52.2499 27.1368 52.282 27.2011C52.7546 28.0283 53.0017 28.9735 53.0017 29.9295Z" fill="white"/>
<path d="M53.0014 29.9295V40.8322C53.0014 47.8464 47.3137 53.5341 40.2996 53.5341H37.6786C36.7709 53.5341 35.8847 53.4374 35.0308 53.2548C40.7722 52.0356 45.0795 46.9387 45.0795 40.8322V29.9295C45.0795 28.9735 44.8325 28.0283 44.3598 27.2011C44.3277 27.1368 44.2847 27.0722 44.2471 27.0079C43.1245 25.2301 40.5949 23.1301 35.0308 22.4481C36.207 22.3031 37.5228 22.2225 38.989 22.2225C47.3783 22.2225 50.8101 24.8542 52.169 27.0079C52.2066 27.0722 52.2496 27.1368 52.2817 27.2011C52.7544 28.0283 53.0014 28.9735 53.0014 29.9295Z" fill="#E8E1F2"/>
<path d="M52.2815 27.2011L49.435 30.6385C48.1246 32.2175 46.1804 33.1305 44.1287 33.1305H33.849C31.7974 33.1305 29.8478 32.2175 28.5427 30.6385L25.6908 27.2011C26.9637 25.0528 30.3472 22.2225 38.9889 22.2225C47.3781 22.2225 50.81 24.8542 52.1688 27.0079C52.2064 27.0723 52.2494 27.1368 52.2815 27.2011Z" fill="#5A42E6"/>
<path d="M63.4013 69.2541C63.1919 69.2541 62.9826 69.173 62.8247 69.0111C56.5029 62.5332 48.0374 58.9657 38.9877 58.9657C29.938 58.9657 21.4728 62.5331 15.1511 69.0109C14.8402 69.3294 14.3303 69.3355 14.0119 69.0248C13.6934 68.714 13.6873 68.204 13.998 67.8856C20.6254 61.0945 29.5002 57.3545 38.9877 57.3545C48.4752 57.3545 57.3503 61.0946 63.9778 67.8859C64.2886 68.2043 64.2824 68.7143 63.9639 69.0251C63.8072 69.1779 63.6043 69.2541 63.4013 69.2541Z" fill="#4A287A"/>
<path d="M63.9255 89.5452C63.8235 91.0436 62.5615 92.2682 60.9985 92.2682H49.6017C48.302 92.2682 47.1366 91.4142 46.7982 90.1574C45.869 86.7147 42.7217 84.1797 38.989 84.1797C35.251 84.1797 32.1092 86.7147 31.1799 90.1574C30.8362 91.4142 29.6761 92.2682 28.371 92.2682H16.9796C15.4114 92.2682 14.1492 91.0436 14.0526 89.5452C15.712 88.804 17.1246 87.5042 17.9786 85.7426L20.6318 80.2752C21.5286 78.4277 21.6522 76.4083 21.1312 74.5822C25.6856 69.9902 32.007 67.1383 38.989 67.1383C45.9711 67.1383 52.2871 69.9902 56.8469 74.5822C56.3206 76.4083 56.4441 78.4331 57.3411 80.2752L59.9996 85.7426C60.8535 87.5042 62.2661 88.8094 63.9255 89.5452Z" fill="white"/>
<path d="M56.8469 74.5822C56.8308 74.6359 56.82 74.6842 56.8092 74.7379C53.9467 73.6637 50.8424 73.073 47.5984 73.073C35.5571 73.073 25.4117 81.199 22.3504 92.2682H16.9796C15.4114 92.2682 14.1492 91.0436 14.0526 89.5452C15.712 88.804 17.1246 87.5042 17.9786 85.7426L20.6317 80.2752C21.5286 78.4277 21.6521 76.4083 21.1312 74.5822C25.6856 69.9902 32.007 67.1383 38.989 67.1383C45.971 67.1383 52.2871 69.9901 56.8469 74.5822Z" fill="#E8E1F2"/>
<path d="M11.6487 67.9796C11.2039 67.9796 10.8431 67.6189 10.8431 67.174V61.8778C10.8431 59.8202 12.5172 58.1461 14.5749 58.1461C16.6325 58.1461 18.3065 59.8201 18.3065 61.8778V65.7778C18.3065 66.2227 17.9458 66.5834 17.5009 66.5834C17.056 66.5834 16.6953 66.2227 16.6953 65.7778V61.8778C16.6953 60.7086 15.7441 59.7574 14.5749 59.7574C13.4057 59.7574 12.4544 60.7086 12.4544 61.8778V67.174C12.4544 67.6189 12.0937 67.9796 11.6487 67.9796Z" fill="#4A287A"/>
<path d="M66.3204 67.9796C65.8755 67.9796 65.5148 67.6189 65.5148 67.174V61.8778C65.5148 60.7086 64.5636 59.7574 63.3944 59.7574C62.2252 59.7574 61.274 60.7086 61.274 61.8778V65.7778C61.274 66.2227 60.9133 66.5834 60.4684 66.5834C60.0235 66.5834 59.6628 66.2227 59.6628 65.7778V61.8778C59.6628 59.8202 61.3368 58.1461 63.3944 58.1461C65.452 58.1461 67.126 59.8201 67.126 61.8778V67.174C67.126 67.6189 66.7652 67.9796 66.3204 67.9796Z" fill="#4A287A"/>
<path d="M40.2997 54.339H37.676C30.2279 54.339 24.1686 48.2797 24.1686 40.8318V29.9226C24.1686 28.7888 24.4558 27.7049 24.9989 26.7884C26.4515 24.3369 30.0576 21.4146 38.9879 21.4146C47.7546 21.4146 51.3644 24.2232 52.849 26.5793C53.4757 27.574 53.8069 28.7331 53.8069 29.9313V40.8318C53.8069 48.2797 47.7476 54.339 40.2997 54.339ZM38.9879 23.0259C30.3856 23.0259 27.3995 25.8978 26.3851 27.6097C25.9892 28.2779 25.7799 29.0777 25.7799 29.9227V40.8318C25.7799 47.3913 31.1165 52.7278 37.676 52.7278H40.2997C46.8591 52.7278 52.1957 47.3913 52.1957 40.8318V29.9313C52.1957 29.0375 51.9502 28.1754 51.4858 27.4382C50.4474 25.7904 47.443 23.0259 38.9879 23.0259Z" fill="#4A287A"/>
<path d="M24.9742 30.7283C24.5294 30.7283 24.1686 30.3675 24.1686 29.9227V23.839C24.1686 22.7051 24.4558 21.6212 24.9989 20.7046C26.4515 18.2532 30.0576 15.3309 38.9879 15.3309C47.7545 15.3309 51.3644 18.1394 52.849 20.4955C53.4757 21.4903 53.8069 22.6493 53.8069 23.8475V28.9963C53.8069 29.4413 53.4462 29.802 53.0013 29.802C52.5564 29.802 52.1957 29.4413 52.1957 28.9963V23.8475C52.1957 22.9538 51.9503 22.0916 51.4858 21.3544C50.4475 19.7066 47.4431 16.9421 38.9879 16.9421C30.3856 16.9421 27.3995 19.814 26.3851 21.526C25.9892 22.1942 25.7799 22.9939 25.7799 23.8389V29.9226C25.7799 30.3675 25.4191 30.7283 24.9742 30.7283Z" fill="#4A287A"/>
<path d="M22.3669 39.8389H24.9744V30.2244H22.3669C20.207 30.2244 18.456 31.9753 18.456 34.1353V35.928C18.456 38.0879 20.207 39.8389 22.3669 39.8389Z" fill="white"/>
<path d="M55.6091 30.2244H53.0016V39.8389H55.6091C57.769 39.8389 59.5199 38.0879 59.5199 35.928V34.1353C59.5199 31.9753 57.769 30.2244 55.6091 30.2244Z" fill="white"/>
<path d="M24.9745 40.6444H22.3669C19.7663 40.6444 17.6505 38.5287 17.6505 35.928V34.1352C17.6505 31.5345 19.7662 29.4187 22.3669 29.4187H24.9745C25.4193 29.4187 25.7801 29.7794 25.7801 30.2243V39.8388C25.7801 40.2837 25.4193 40.6444 24.9745 40.6444ZM22.3669 31.03C20.6547 31.03 19.2617 32.4229 19.2617 34.1352V35.928C19.2617 37.6403 20.6547 39.0332 22.3669 39.0332H24.1688V31.03H22.3669Z" fill="#4A287A"/>
<path d="M55.609 40.6444H53.0015C52.5566 40.6444 52.1959 40.2837 52.1959 39.8388V30.2243C52.1959 29.7794 52.5566 29.4187 53.0015 29.4187H55.609C58.2097 29.4187 60.3255 31.5345 60.3255 34.1352V35.928C60.3255 38.5286 58.2097 40.6444 55.609 40.6444ZM53.8071 39.0332H55.609C57.3212 39.0332 58.7142 37.6402 58.7142 35.928V34.1352C58.7142 32.4229 57.3212 31.0299 55.609 31.0299H53.8071V39.0332Z" fill="#4A287A"/>
<path d="M55.7217 30.925C55.409 30.925 55.1116 30.7419 54.9808 30.4362C54.8058 30.0277 54.9948 29.555 55.4026 29.3793C55.6448 29.2742 61.2969 26.7398 60.7108 20.0123C60.3998 16.4423 57.9573 14.543 55.1288 12.3439C54.3271 11.7205 53.498 11.0758 52.6841 10.367C52.1981 9.94363 51.7747 9.29705 51.2386 8.47841C49.448 5.74379 46.7422 1.61125 38.9872 1.61125C30.7606 1.61125 28.3188 5.70136 26.7031 8.40785C26.1968 9.25601 25.7969 9.92592 25.2904 10.367C24.4844 11.069 23.6761 11.6997 22.8945 12.3098C20.0196 14.5536 17.7489 16.3257 17.2599 20.0473C16.3841 26.7111 22.3094 29.2696 22.5621 29.3752C22.972 29.5466 23.1666 30.0177 22.9961 30.4279C22.8259 30.8382 22.3565 31.0335 21.9457 30.8638C21.8723 30.8336 14.6232 27.745 15.6623 19.8373C16.2374 15.4616 18.9896 13.3137 21.9032 11.0396C22.6681 10.4427 23.4589 9.82545 24.2322 9.15196C24.5451 8.8795 24.904 8.27822 25.3196 7.58195C27.0126 4.74617 29.846 0 38.9872 0C47.6131 0 50.7265 4.75482 52.5866 7.59574C53.0359 8.28211 53.424 8.87479 53.7423 9.15196C54.5223 9.83138 55.3335 10.462 56.1178 11.0719C59.114 13.4015 61.944 15.6019 62.316 19.8724C63.0052 27.7828 56.1081 30.8299 56.0384 30.8598C55.9349 30.904 55.8274 30.925 55.7217 30.925Z" fill="#4A287A"/>
<path d="M44.129 33.9378H33.847C31.5479 33.9378 29.388 32.9224 27.9211 31.152L25.0718 27.713C24.7879 27.3704 24.8355 26.8626 25.1781 26.5787C25.5205 26.2947 26.0284 26.3423 26.3124 26.685L29.1617 30.124C30.3215 31.5238 32.0293 32.3266 33.847 32.3266H44.129C45.9467 32.3266 47.6545 31.5238 48.8143 30.124L51.6636 26.685C51.9474 26.3423 52.4551 26.2948 52.7979 26.5787C53.1405 26.8626 53.1881 27.3704 52.9043 27.713L50.0549 31.152C48.5881 32.9224 46.4281 33.9378 44.129 33.9378Z" fill="#4A287A"/>
<path d="M33.6577 59.3805C33.2128 59.3805 32.8521 59.0198 32.8521 58.5749V52.8845C32.8521 52.4396 33.2128 52.0789 33.6577 52.0789C34.1026 52.0789 34.4633 52.4396 34.4633 52.8845V58.5749C34.4633 59.0198 34.1026 59.3805 33.6577 59.3805Z" fill="#4A287A"/>
<path d="M44.2667 59.3718C43.8218 59.3718 43.4611 59.011 43.4611 58.5661V52.9013C43.4611 52.4564 43.8218 52.0957 44.2667 52.0957C44.7116 52.0957 45.0723 52.4564 45.0723 52.9013V58.5661C45.0723 59.011 44.7116 59.3718 44.2667 59.3718Z" fill="#4A287A"/>
<path d="M73.098 100.631C72.6532 100.631 72.2924 100.27 72.2924 99.8251V92.27C72.2924 90.998 72.2199 89.7162 72.077 88.4604C72.0268 88.0184 72.3444 87.6192 72.7864 87.5689C73.2273 87.5177 73.6275 87.8361 73.678 88.2782C73.8277 89.5943 73.9036 90.9374 73.9036 92.27V99.8251C73.9036 100.27 73.5429 100.631 73.098 100.631Z" fill="#4A287A"/>
<path d="M4.87812 100.631C4.43324 100.631 4.07251 100.27 4.07251 99.8252V92.27C4.07251 90.9381 4.14856 89.595 4.29829 88.2782C4.34865 87.8361 4.7478 87.5178 5.18992 87.5688C5.63192 87.6191 5.94952 88.0184 5.89928 88.4604C5.75623 89.717 5.6837 90.9988 5.6837 92.2701V99.8252C5.68373 100.27 5.32304 100.631 4.87812 100.631Z" fill="#4A287A"/>
<path d="M60.9981 93.0757H49.6026C47.924 93.0757 46.4508 91.9615 46.0203 90.3663C45.1651 87.1989 42.2735 84.9868 38.9882 84.9868C35.703 84.9868 32.8114 87.1989 31.9562 90.3663C31.5256 91.9615 30.0524 93.0757 28.3738 93.0757H16.9782C15.0146 93.0757 13.3757 91.5481 13.247 89.598C13.2177 89.1541 13.5538 88.7704 13.9978 88.7411C14.4438 88.7122 14.8254 89.0479 14.8548 89.492C14.9277 90.598 15.8605 91.4644 16.9782 91.4644H28.3738C29.3259 91.4644 30.1593 90.8402 30.4005 89.9464C31.4452 86.0776 34.9764 83.3756 38.9882 83.3756C42.9999 83.3756 46.5312 86.0776 47.5759 89.9464C47.8172 90.8402 48.6506 91.4644 49.6027 91.4644H60.9981C62.1149 91.4644 63.0476 90.5989 63.1216 89.4939C63.1512 89.0499 63.5372 88.7145 63.9791 88.7439C64.4231 88.7736 64.7589 89.1576 64.7291 89.6016C64.5987 91.5497 62.9599 93.0757 60.9981 93.0757Z" fill="#4A287A"/>
<path d="M21.1261 75.3948C20.9212 75.3948 20.7163 75.3172 20.5594 75.1618C20.2431 74.8487 20.2404 74.3386 20.5536 74.0225C25.4631 69.063 32.0099 66.3317 38.9878 66.3317C45.9659 66.3317 52.5126 69.0629 57.4221 74.0224C57.7352 74.3386 57.7326 74.8487 57.4163 75.1617C57.1003 75.4747 56.59 75.4721 56.2771 75.1559C51.6725 70.5045 45.5324 67.9429 38.9878 67.9429C32.4432 67.9429 26.3032 70.5046 21.6985 75.156C21.5411 75.3151 21.3336 75.3948 21.1261 75.3948Z" fill="#4A287A"/>
<path d="M10.7767 91.0464C9.48815 91.0464 8.18073 90.7624 6.94597 90.1624L2.60961 88.0552C0.31025 86.938 -0.651412 84.1584 0.465874 81.8591L6.75845 68.9094C7.87589 66.6102 10.6554 65.6482 12.9547 66.7658L17.291 68.8729C19.4044 69.8999 20.9916 71.6884 21.7598 73.909C22.5281 76.1297 22.3855 78.5165 21.3584 80.63L18.7029 86.0949C17.183 89.2231 14.0411 91.0464 10.7767 91.0464ZM7.65008 88.7132C9.37644 89.552 11.326 89.6685 13.1401 89.041C14.9539 88.4134 16.4148 87.1171 17.2538 85.3907L19.9093 79.9258C20.7482 78.1994 20.8646 76.2498 20.2371 74.4358C19.6095 72.6219 18.3132 71.1611 16.5869 70.3221L12.2505 68.215C11.5237 67.8619 10.7034 67.8128 9.93932 68.077C9.1758 68.3412 8.56068 68.8869 8.20758 69.6137L1.915 82.5633C1.18608 84.0634 1.8135 85.8771 3.31369 86.606L7.65008 88.7132Z" fill="#4A287A"/>
<path d="M67.1994 91.0464C63.9345 91.0466 60.7932 89.2233 59.2731 86.095L56.6176 80.63C55.5906 78.5166 55.448 76.1297 56.2163 73.9091C56.9845 71.6884 58.5716 69.8999 60.6851 68.873L65.0214 66.7658C66.1353 66.2245 67.3933 66.1494 68.5634 66.5543C69.7337 66.9592 70.6764 67.7956 71.2175 68.9095L77.5102 81.859C78.6275 84.1584 77.6658 86.938 75.3665 88.0552L71.0301 90.1624C69.7956 90.7623 68.4876 91.0464 67.1994 91.0464ZM70.678 89.4378H70.6834H70.678ZM67.0452 67.9092C66.5934 67.9092 66.144 68.0117 65.7257 68.215L61.3892 70.3221C59.6628 71.1611 58.3666 72.622 57.739 74.4358C57.1115 76.2498 57.2279 78.1995 58.0668 79.9258L60.7223 85.3908C62.4542 88.9546 66.7629 90.4448 70.326 88.7133L74.6623 86.6061C76.1625 85.8771 76.7899 84.0635 76.061 82.5632L69.7683 69.6137C69.4152 68.8869 68.8003 68.3412 68.0366 68.077C67.7125 67.9649 67.3782 67.9092 67.0452 67.9092Z" fill="#4A287A"/>
</svg>
