<svg width="59" height="101" viewBox="0 0 59 101" fill="none" xmlns="http://www.w3.org/2000/svg">
<g clip-path="url(#clip0_1_1724)">
<path d="M1.68 99.79V100.63H1.19V100.55C1.48 100.42 1.68 100.13 1.68 99.79Z" fill="#5A42E6"/>
<path d="M57.2 77.87V99.63H48.56V73.85C48.56 73.39 48.18 73.01 47.71 73.01C47.25 73.01 46.87 73.39 46.87 73.85V99.63H14.32V76.65C14.32 75.27 13.33 74.13 12.02 73.9V73.85C12.02 73.39 11.65 73.01 11.18 73.01C10.72 73.01 10.34 73.39 10.34 73.85V99.63H3.94V80.62C3.94 71.08 9.73 62.68 17.87 59.12L21.29 68.68C21.4 68.96 21.63 69.17 21.9 69.22C21.97 69.23 22.03 69.24 22.09 69.24C22.32 69.24 22.53 69.15 22.69 68.99L24.47 67.15V67.88C24.47 69.45 25.22 70.94 26.48 71.88L26.68 72.04L26.48 72.19C25.18 73.15 24.43 74.63 24.43 76.23V92.67C24.43 95.8 27.29 98.26 30.53 97.59C32.89 97.1 34.49 94.88 34.49 92.47V76.23C34.49 74.65 33.73 73.15 32.46 72.2L32.26 72.04L32.46 71.89C33.75 70.94 34.49 69.47 34.49 67.88V67.22L36.14 68.98C36.3 69.14 36.52 69.24 36.76 69.24C36.8 69.24 36.87 69.23 36.91 69.22C37.19 69.17 37.43 68.97 37.53 68.7L42.32 56.35L42.5 56.42C45.66 57.62 48.46 59.5 50.73 61.86C51.99 63.17 53.09 64.62 54.01 66.18C54.03 66.21 54.04 66.24 54.06 66.27L55.11 68.29C56.46 71.24 57.2 74.5 57.2 77.87Z" fill="#5A42E6"/>
<path d="M1.68 99.79V100.63H1.19V100.55C1.48 100.42 1.68 100.13 1.68 99.79Z" fill="white"/>
<path d="M35.11 54.12L35.04 54.25C35 56.49 33.63 58.42 31.7 59.29C30.99 59.62 30.2 59.8 29.37 59.8C26.28 59.8 23.74 57.29 23.7 54.21V47.62L23.95 47.69C25.24 48.08 26.59 48.28 27.96 48.28H30.69C31.95 48.28 33.2 48.11 34.41 47.77L35.05 47.59V54.05L35.11 54.12Z" fill="white"/>
<path d="M43.88 22.49C43.41 22.49 43.03 22.12 43.03 21.65V20.04C43.03 14.01 38.13 8.98002 32.1 8.84002C32.02 8.83002 31.92 8.83002 31.82 8.83002H26.85C20.66 8.83002 15.64 13.85 15.64 20.04V21.65C15.64 22.12 15.27 22.49 14.81 22.49C11.97 22.54 9.65997 24.88 9.65997 27.71C9.65997 30.54 11.97 32.88 14.81 32.92C15.26 32.93 15.64 33.31 15.64 33.77V34.26C15.64 39.19 18.55 43.62 23.07 45.57L23.19 45.63C24.71 46.26 26.32 46.59 27.96 46.59H30.69C32.38 46.59 34.02 46.25 35.56 45.59C40.1 43.62 43.03 39.18 43.03 34.26V33.77C43.03 33.31 43.4 32.93 43.87 32.93C46.74 32.93 49.08 30.59 49.08 27.71C49.08 24.83 46.75 22.5 43.88 22.49ZM34.99 37.69C33.5 39.2 31.5 40.02 29.37 40.02C27.25 40.02 25.25 39.2 23.75 37.69C23.42 37.37 23.42 36.83 23.75 36.5C23.91 36.34 24.12 36.26 24.35 36.26C24.57 36.26 24.78 36.34 24.94 36.5C26.13 37.69 27.7 38.34 29.37 38.34C31.05 38.34 32.62 37.69 33.8 36.5C33.96 36.34 34.17 36.26 34.4 36.26C34.62 36.26 34.83 36.34 34.99 36.5C35.32 36.83 35.32 37.37 34.99 37.69Z" fill="white"/>
<path d="M34.99 37.69C33.5 39.2 31.5 40.02 29.37 40.02C27.25 40.02 25.25 39.2 23.75 37.69C23.42 37.37 23.42 36.83 23.75 36.5C23.91 36.34 24.12 36.26 24.35 36.26C24.57 36.26 24.78 36.34 24.94 36.5C26.13 37.69 27.7 38.34 29.37 38.34C31.05 38.34 32.62 37.69 33.8 36.5C33.96 36.34 34.17 36.26 34.4 36.26C34.62 36.26 34.83 36.34 34.99 36.5C35.32 36.83 35.32 37.37 34.99 37.69Z" fill="#4A2D7A"/>
<path d="M27.76 61.31L24.73 64.45L24.67 64.52L22.42 66.84L19.44 58.53L18.44 55.72L18.64 55.67C19.73 55.39 20.83 55.2 21.9 55.11L22.08 55.1L22.11 55.27C22.26 56.22 22.59 57.11 23.07 57.91C24.02 59.52 25.58 60.72 27.45 61.23L27.76 61.31Z" fill="#FEC111"/>
<path d="M23.07 57.91C21.83 58.01 20.62 58.22 19.44 58.53L18.44 55.72L18.64 55.67C19.73 55.39 20.83 55.2 21.9 55.11L22.08 55.1L22.11 55.27C22.26 56.22 22.59 57.11 23.07 57.91Z" fill="white"/>
<path d="M32.8 76.22V92.67C32.8 94.86 30.67 96.57 28.37 95.84C27 95.4 26.12 94.04 26.12 92.59V76.23C26.12 74.39 27.62 72.89 29.46 72.89H29.47C31.31 72.89 32.8 74.38 32.8 76.22Z" fill="white"/>
<path d="M47.57 12.78V21.88L47.28 21.71C46.55 21.29 45.74 21.01 44.88 20.88L44.72 20.85V20.04C44.72 19.21 44.64 18.39 44.48 17.59C43.78 14.02 41.57 10.84 38.38 8.93999L37.98 8.71L38.17 8.66C40.09 8.19 41.79 7.07 42.98 5.49L43.07 5.37L43.22 5.43C43.53 5.57 43.83 5.72 44.11 5.9C46.29 7.27 47.57 9.76999 47.57 12.78Z" fill="#5A42E6"/>
<path d="M43.96 5.25001C43.93 5.23001 43.91 5.22001 43.88 5.21001V5.20001C43.91 5.21001 43.93 5.23001 43.96 5.25001Z" fill="#5A42E6"/>
<path d="M47.57 12.78V21.88L47.28 21.71C46.55 21.29 45.74 21.01 44.88 20.88L44.72 20.85V20.04C44.72 19.21 44.64 18.39 44.48 17.59V8.65002C44.48 7.68002 44.35 6.76002 44.11 5.90002C46.29 7.27002 47.57 9.77002 47.57 12.78Z" fill="#5A42E6"/>
<path d="M42.74 1.67999L42.7 1.89999C42.56 2.72999 42.26 3.50999 41.83 4.18999C41.83 4.19999 41.82 4.19999 41.82 4.20999C41.24 4.86999 40.56 5.57999 39.83 6.18999C39.82 6.19999 39.81 6.19999 39.8 6.20999C39.4 6.46999 38.98 6.66999 38.52 6.81999C38.51 6.81999 38.49 6.82999 38.48 6.82999C38.44 6.83999 38.41 6.85999 38.37 6.85999C37.99 6.95999 37.54 7.04999 37.05 7.12999C37.04 7.12999 37.03 7.12999 37.03 7.12999C36.85 7.14999 36.67 7.15999 36.48 7.15999H32.14C32.04 7.14999 31.93 7.14999 31.83 7.14999H26.85C25.66 7.14999 24.52 7.30999 23.43 7.60999H23.3C17.92 9.23999 13.95 14.11 13.95 20.04V20.87L13.79 20.9C12.94 21.03 12.12 21.33 11.37 21.8L11.08 21.97V21.36C12.54 19.78 13.34 17.71 13.34 15.56C13.34 9.13999 18.54 3.92999 24.97 3.92999H36.13C36.7 3.92999 37.26 3.87999 37.82 3.77999C39.33 3.10999 40.52 2.34999 41.41 1.67999H42.74Z" fill="#5A42E6"/>
<path d="M38.37 6.85999C37.95 7.00999 37.51 7.08999 37.05 7.12999C37.54 7.04999 37.99 6.95999 38.37 6.85999Z" fill="#5A42E6"/>
<path d="M39.8 6.21002C39.75 6.25002 39.71 6.29002 39.66 6.33002C39.42 6.52002 39.03 6.68002 38.52 6.82002C38.98 6.67002 39.4 6.47002 39.8 6.21002Z" fill="#5A42E6"/>
<path d="M41.82 4.21002C41.32 5.02002 40.64 5.70002 39.83 6.19002C40.56 5.58002 41.24 4.87002 41.82 4.21002Z" fill="#5A42E6"/>
<path d="M41.41 1.67999C40.52 2.34999 39.33 3.10999 37.82 3.77999C37.26 3.87999 36.7 3.92999 36.13 3.92999H24.97C18.54 3.92999 13.34 9.13999 13.34 15.56C13.34 17.71 12.54 19.78 11.08 21.36V12.81C11.08 6.67999 16.07 1.67999 22.21 1.67999H41.41Z" fill="#5A42E6"/>
<path d="M41.41 1.67999C40.52 2.34999 39.33 3.10999 37.82 3.77999C37.26 3.87999 36.7 3.92999 36.13 3.92999H24.97C18.54 3.92999 13.34 9.13999 13.34 15.56C13.34 17.71 12.54 19.78 11.08 21.36V12.81C11.08 6.67999 16.07 1.67999 22.21 1.67999H41.41Z" fill="white"/>
<path d="M46.87 73.88V99.63H43.24V77.98C43.24 75.87 44.82 74.13 46.87 73.88Z" fill="#E8E1F2"/>
<path d="M40.71 55.83L36.45 66.85L31.19 61.27L31.49 61.18C34.18 60.37 36.2 58.05 36.64 55.27L36.66 55.1L36.84 55.11C38.1 55.22 39.33 55.44 40.51 55.77L40.71 55.83Z" fill="#FEC111"/>
<path d="M32.81 65.4399V67.8799C32.81 69.7099 31.32 71.1999 29.46 71.1999C27.64 71.1899 26.16 69.6999 26.16 67.8799V65.4099L29.51 61.9399L32.81 65.4399Z" fill="white"/>
<path d="M57.2 77.87V99.63H53.61C53.56 90.2 53.49 78.38 53.49 78.38C53.43 74.05 53.28 69.66 51.98 65.51C51.59 64.29 51.17 63.07 50.73 61.86C51.99 63.17 53.09 64.62 54.01 66.18C54.03 66.21 54.04 66.24 54.06 66.27L55.11 68.29C56.46 71.24 57.2 74.5 57.2 77.87Z" fill="#E8E1F2"/>
<path d="M22.01 46.9599V47L21.9 46.95L22.01 46.9599Z" fill="#E8E0EF"/>
<path d="M35.11 54.12L35.04 54.25C35 56.49 33.63 58.42 31.7 59.29C31.27 54.36 28.27 49.98 23.75 47.83L23.7 47.81V47.62L23.95 47.69C25.24 48.08 26.59 48.28 27.96 48.28H30.69C31.95 48.28 33.2 48.11 34.41 47.77L35.05 47.59V54.05L35.11 54.12Z" fill="#E8E0EF"/>
<path d="M39.8 6.21002C39.75 6.25002 39.71 6.29002 39.66 6.33002C39.42 6.52002 39.03 6.68002 38.52 6.82002C38.98 6.67002 39.4 6.47002 39.8 6.21002Z" fill="#5A42E6"/>
<path d="M38.52 6.82001C39.03 6.68001 39.42 6.52001 39.66 6.33001C39.71 6.29001 39.75 6.25001 39.8 6.21001C39.4 6.47001 38.98 6.67001 38.52 6.82001ZM43.88 5.20001C43.91 5.22001 43.93 5.23001 43.96 5.25001C43.93 5.23001 43.91 5.21001 43.88 5.20001Z" fill="#4A2D7A"/>
<path d="M42.11 54.5C40.94 53.93 39.68 53.59 38.39 53.52L36.73 53.42V46.91L36.83 46.86C41.53 44.56 44.54 39.91 44.71 34.72V34.56L44.87 34.54C48.23 34.05 50.77 31.11 50.77 27.71C50.77 26.15 50.26 24.68 49.29 23.45L49.25 23.4V12.78C49.25 8.82 47.25 5.44 44.04 3.96L43.88 3.88L43.94 3.72C44.3 2.79 44.48 1.82 44.48 0.84C44.48 0.38 44.1 0 43.63 0H22.21C15.16 0 9.4 5.76 9.4 12.81V23.55L9.36 23.6C8.46 24.8 7.98 26.22 7.98 27.71C7.98 31.06 10.48 33.99 13.8 34.52L13.95 34.54L13.96 34.7C14.12 39.94 17.17 44.62 21.91 46.9L22.01 46.95V53.42L21.84 53.43C9.59 54.47 0 65.21 0 77.87V99.79C0 100.25 0.38 100.63 0.84 100.63C0.96 100.63 1.08 100.6 1.19 100.55C1.48 100.42 1.68 100.13 1.68 99.79V77.87C1.68 68.32 7.84 59.44 16.65 56.28L16.83 56.21L17.87 59.12L21.29 68.68C21.4 68.96 21.63 69.17 21.9 69.22C21.97 69.23 22.03 69.24 22.09 69.24C22.32 69.24 22.53 69.15 22.69 68.99L24.47 67.15V67.88C24.47 69.45 25.22 70.94 26.48 71.88L26.68 72.04L26.48 72.19C25.18 73.15 24.43 74.63 24.43 76.23V92.67C24.43 95.8 27.29 98.26 30.53 97.59C32.89 97.1 34.49 94.88 34.49 92.47V76.23C34.49 74.65 33.73 73.15 32.46 72.2L32.26 72.04L32.46 71.89C33.75 70.94 34.49 69.47 34.49 67.88V67.22L36.14 68.98C36.3 69.14 36.52 69.24 36.76 69.24C36.8 69.24 36.87 69.23 36.91 69.22C37.19 69.17 37.43 68.97 37.53 68.7L42.32 56.35L42.5 56.42C45.66 57.62 48.46 59.5 50.73 61.86C51.99 63.17 53.09 64.62 54.01 66.18C54.03 66.21 54.04 66.24 54.06 66.27C54.44 66.92 54.79 67.6 55.11 68.29C56.46 71.24 57.2 74.5 57.2 77.87V99.79C57.2 100.25 57.58 100.63 58.04 100.63C58.5 100.63 58.88 100.25 58.88 99.79V77.87C58.88 67.36 51.99 57.75 42.11 54.5ZM43.88 5.2C43.91 5.21 43.93 5.23 43.96 5.25C43.93 5.23 43.91 5.22 43.88 5.2ZM43.07 5.37L43.22 5.43C43.53 5.57 43.83 5.72 44.11 5.9C46.29 7.27 47.57 9.77 47.57 12.78V21.88L47.28 21.71C46.55 21.29 45.74 21.01 44.88 20.88L44.72 20.85V20.04C44.72 19.21 44.64 18.39 44.48 17.59C43.78 14.02 41.57 10.84 38.38 8.94L37.98 8.71L38.17 8.66C40.09 8.19 41.79 7.07 42.98 5.49L43.07 5.37ZM11.08 12.81C11.08 6.68 16.07 1.68 22.21 1.68H42.74L42.7 1.9C42.56 2.73 42.26 3.51 41.83 4.19C41.83 4.2 41.82 4.2 41.82 4.21C41.32 5.02 40.64 5.7 39.83 6.19C39.82 6.2 39.81 6.2 39.8 6.21C39.75 6.25 39.71 6.29 39.66 6.33C39.42 6.52 39.03 6.68 38.52 6.82C38.51 6.82 38.49 6.83 38.48 6.83C38.44 6.84 38.41 6.86 38.37 6.86C37.95 7.01 37.51 7.09 37.05 7.13C37.05 7.14 37.04 7.14 37.03 7.13C36.85 7.15 36.67 7.16 36.48 7.16H32.14C32.04 7.15 31.93 7.15 31.83 7.15H26.85C25.66 7.15 24.52 7.31 23.43 7.61H23.3C17.92 9.24 13.95 14.11 13.95 20.04V20.87L13.79 20.9C12.94 21.03 12.12 21.33 11.37 21.8L11.08 21.97V12.81ZM15.64 34.26V33.77C15.64 33.31 15.26 32.93 14.81 32.92C11.97 32.88 9.66 30.54 9.66 27.71C9.66 24.88 11.97 22.54 14.81 22.49C15.27 22.49 15.64 22.12 15.64 21.65V20.04C15.64 13.85 20.66 8.83 26.85 8.83H31.82C31.92 8.83 32.02 8.83 32.1 8.84C38.13 8.98 43.03 14.01 43.03 20.04V21.65C43.03 22.12 43.41 22.49 43.88 22.49C46.75 22.5 49.08 24.83 49.08 27.71C49.08 30.59 46.74 32.93 43.87 32.93C43.4 32.93 43.03 33.31 43.03 33.77V34.26C43.03 39.18 40.1 43.62 35.56 45.59C34.02 46.25 32.38 46.59 30.69 46.59H27.96C26.32 46.59 24.71 46.26 23.19 45.63L23.07 45.57C18.55 43.62 15.64 39.19 15.64 34.26ZM35.11 54.12L35.04 54.25C35 56.49 33.63 58.42 31.7 59.29C30.99 59.62 30.2 59.8 29.37 59.8C26.28 59.8 23.74 57.29 23.7 54.21V47.62L23.95 47.69C25.24 48.08 26.59 48.28 27.96 48.28H30.69C31.95 48.28 33.2 48.11 34.41 47.77L35.05 47.59V54.05L35.11 54.12ZM24.73 64.45L24.67 64.52L22.42 66.84L19.44 58.53L18.44 55.72L18.64 55.67C19.73 55.39 20.83 55.2 21.9 55.11L22.08 55.1L22.11 55.27C22.26 56.22 22.59 57.11 23.07 57.91C24.02 59.52 25.58 60.72 27.45 61.23L27.76 61.31L24.73 64.45ZM32.8 76.22V92.67C32.8 94.86 30.67 96.57 28.37 95.84C27 95.4 26.12 94.04 26.12 92.59V76.23C26.12 74.39 27.62 72.89 29.46 72.89H29.47C31.31 72.89 32.8 74.38 32.8 76.22ZM32.81 67.88C32.81 69.71 31.32 71.2 29.46 71.2C27.64 71.19 26.16 69.7 26.16 67.88V65.41L29.51 61.94L32.81 65.44V67.88ZM36.45 66.85L31.19 61.27L31.49 61.18C34.18 60.37 36.2 58.05 36.64 55.27L36.66 55.1L36.84 55.11C38.1 55.22 39.33 55.44 40.51 55.77L40.71 55.83L36.45 66.85Z" fill="#4A2D7A"/>
<path d="M48.56 73.85V99.79C48.56 100.26 48.18 100.64 47.71 100.64C47.24 100.64 46.86 100.26 46.86 99.79V73.85C46.86 73.39 47.24 73.01 47.7 73.01C48.18 73.01 48.56 73.39 48.56 73.85Z" fill="#4A2D7A"/>
<path d="M12.02 73.85V99.79C12.02 100.25 11.64 100.63 11.18 100.63C10.72 100.63 10.34 100.25 10.34 99.79V73.85C10.34 73.39 10.72 73.01 11.18 73.01C11.65 73.01 12.02 73.39 12.02 73.85Z" fill="#4A2D7A"/>
</g>
<defs>
<clipPath id="clip0_1_1724">
<rect width="58.88" height="100.63" fill="white"/>
</clipPath>
</defs>
</svg>
